<svg xmlns="http://www.w3.org/2000/svg" width="122.503" height="102.179" viewBox="0 0 122.503 102.179">
  <g id="logo" transform="translate(-95.556 -76.689)">
    <path id="Path_1" data-name="Path 1" d="M298.271,93.463,293.4,104.347q-1.988,3.8-7.019,4.32h-1.83q-3.362-.207-7.317-.138a53.507,53.507,0,0,0-8.5,2.035,10.9,10.9,0,0,1-5.969.3,28.215,28.215,0,0,1-3.429-1.326,49.026,49.026,0,0,1-4.208-2.835,47.2,47.2,0,0,0-6.677-4.092q-2.764-1.511-10.61-5.032-4.481-2.173-5.807-3.909a4.208,4.208,0,0,1-.344-4.254,3.663,3.663,0,0,1,2.127-2.1,6.14,6.14,0,0,1,5.352.184q3.748,1.693,5.19,2.333,2.538,1.144,7.979,2.926a19.963,19.963,0,0,0,3.7.778h1.579l-1.417-.641q-12.508-5.738-16.44-7.409-3.841-1.6-6.654-.5a6.851,6.851,0,0,0-3.748,3.292,10.652,10.652,0,0,0-.754,3.27q-1.465-.091-5.968-.252-9.444,4.552-10.244,4.847a13.435,13.435,0,0,1-3.8.686,5.721,5.721,0,0,1-3.133-.756,3.371,3.371,0,0,1-1.692-2.515q-.345-2.06,3.589-4.459l13.9-9.011q10.039-1.186,19.6-3.223a6.337,6.337,0,0,1,4.07.388q6.131,3.156,13.949,6.4,3.89,1.6,7.522,3a48.065,48.065,0,0,0,10.816,2.4h.023q4.8.045,21.036-3.8,5.257-1.16,0,8.213Z" transform="translate(-82.841 0)" fill="#269a41" fill-rule="evenodd"/>
    <path id="Path_2" data-name="Path 2" d="M143.916,178.25A142.865,142.865,0,0,1,155.3,198.211q7.407,16.075,6.79,27.073a2.734,2.734,0,0,1-.594,1.189,3.854,3.854,0,0,1-1.007.892,35.915,35.915,0,0,1-16.668,1.419q-12.417-2.242-21.379-13.7,1.624-14.909,5.99-23.256l3.885-5.395a30.8,30.8,0,0,1,11.594-8.188Z" transform="translate(-20.59 -77.768)" fill="#269a41" fill-rule="evenodd"/>
    <path id="Path_3" data-name="Path 3" d="M193.228,195.389a5.579,5.579,0,0,0-3.453-2.194q-18.836.463-21.334-5.259-4.735-11.409-15.71-14.566-10.975-3.133-23.894,2.605a129.289,129.289,0,0,1,9.42,17.791q6.906,15.5,6.151,26.525a5.83,5.83,0,0,1-1.531,3.819,6.4,6.4,0,0,1-3.247,2.426q-5.923,1.988-16.212,1.143-10.312-.87-22.294-10.725-2.726,13.44-5.568,17.48,28.153,16.315,54.751,17.618,4.115-14.474,4.3-14.886,1.03-2.677,1.235-3.041a7.326,7.326,0,0,1,1.189-1.486,6.3,6.3,0,0,1,3.545-1.83,47.369,47.369,0,0,0,20.212-7.271q12.83-8.5,13.7-24.4a4.989,4.989,0,0,0-1.255-3.75Zm-33.888,2.7a4.67,4.67,0,0,1-6.518,0,4.586,4.586,0,0,1,3.271-7.845,4.459,4.459,0,0,1,3.247,1.328,4.662,4.662,0,0,1,0,6.517Z" transform="translate(0 -73.184)" fill="#269a41" fill-rule="evenodd"/>
  </g>
</svg>
