<?xml version="1.0" encoding="UTF-8"?>
<svg width="700pt" height="700pt" version="1.1" viewBox="0 0 700 700" xmlns="http://www.w3.org/2000/svg">
 <path d="m350 116.67c-13.934 0-27.562 1.543-40.785 4.4453-13.551-13.629-35.719-29.023-58.273-43.125-23.531-14.707-48.504-28.629-66.93-38.539-20.973-11.285-46.676 1.6172-49.441 25.621-5.418 47.039-12.633 139.25 4.4961 206.16 0.40625 1.5742 1.1094 2.9922 2.0391 4.2031-8.2695 22.977-12.773 46.75-12.773 70.082 0 109.54 99.246 167.82 221.67 167.82s221.67-58.281 221.67-167.82c0-23.332-4.5039-47.105-12.777-70.082 0.93359-1.2109 1.6406-2.6289 2.043-4.2031 17.133-66.902 9.9141-159.12 4.4922-206.16-2.7617-24.004-28.465-36.906-49.438-25.621-18.426 9.9102-43.398 23.832-66.93 38.539-22.555 14.102-44.723 29.496-58.273 43.125-13.223-2.9023-26.852-4.4453-40.785-4.4453zm146.12 204c-3.3125-5.5273-10.48-7.3203-16.004-4.0039l-77.586 46.555c-0.88672 0.50391-1.7109 1.1328-2.4492 1.875-0.75 0.75-1.3867 1.5898-1.8945 2.4961-0.46484 0.8125-0.83203 1.6914-1.0859 2.6133-0.28906 1.0312-0.42969 2.0859-0.42969 3.1328 0 1.0391 0.14062 2.0898 0.42188 3.1172 0.25781 0.93359 0.63281 1.8203 1.1016 2.6445 0.51172 0.90234 1.1484 1.7461 1.9023 2.4961 0.73438 0.73438 1.5508 1.3555 2.4297 1.8594l77.59 46.555c5.5234 3.3164 12.691 1.5234 16.004-4.0039 3.3164-5.5234 1.5234-12.691-4-16.004l-41.66-24.996h51.215c6.4414 0 11.668-5.2227 11.668-11.668 0-6.4453-5.2266-11.664-11.668-11.664h-51.215l41.66-25c5.5234-3.3125 7.3164-10.48 4-16.004zm-309.45 52.668c0-6.4453 5.2227-11.664 11.664-11.664h51.215l-41.66-25c-5.5234-3.3125-7.3164-10.48-4-16.004 3.3125-5.5273 10.48-7.3203 16.004-4.0039l77.59 46.555c0.88281 0.50781 1.707 1.1328 2.4453 1.875 0.75 0.75 1.3867 1.5898 1.8945 2.4961 0.46484 0.8125 0.83203 1.6914 1.0859 2.6133 0.28906 1.0312 0.42969 2.0859 0.42969 3.1328 0 1.0391-0.13672 2.0898-0.42188 3.1172-0.25781 0.93359-0.62891 1.8203-1.1016 2.6445-0.51172 0.90234-1.1484 1.7461-1.9023 2.4961-0.73438 0.73438-1.5547 1.3555-2.4297 1.8594l-77.59 46.555c-5.5234 3.3164-12.691 1.5234-16.004-4.0039-3.3164-5.5234-1.5234-12.691 4-16.004l41.66-24.996h-51.215c-6.4414 0-11.664-5.2227-11.664-11.668zm81.664-70c6.4453 0 11.668-5.2227 11.668-11.664 0-6.4453-5.2227-11.668-11.668-11.668-6.4414 0-11.664 5.2227-11.664 11.668 0 6.4414 5.2227 11.664 11.664 11.664zm163.34 0c6.4414 0 11.664-5.2227 11.664-11.664 0-6.4453-5.2227-11.668-11.664-11.668-6.4453 0-11.668 5.2227-11.668 11.668 0 6.4414 5.2227 11.664 11.668 11.664zm-115.11 73.125c-6.0781-12.156 2.7578-26.457 16.348-26.457h34.176c13.59 0 22.43 14.301 16.352 26.457-4.5078 9.0156-12.445 15.617-21.77 18.539v16.594l27.02 9.0078c6.1133 2.0352 9.418 8.6445 7.3789 14.758-2.0391 6.1094-8.6484 9.4141-14.758 7.3789l-31.312-10.438-31.309 10.438c-6.1133 2.0352-12.719-1.2695-14.758-7.3789-2.0391-6.1133 1.2656-12.723 7.3789-14.758l27.023-9.0078v-16.594c-9.3242-2.9219-17.262-9.5234-21.77-18.539z" fill-rule="evenodd"/>
</svg>
