<?xml version="1.0" encoding="UTF-8"?>
<svg width="700pt" height="700pt" version="1.1" viewBox="0 0 700 700" xmlns="http://www.w3.org/2000/svg">
 <g>
  <path d="m466.68 359.29c-25.113-0.46094-48.602 12.375-61.777 33.758-2.4258 3.9375-6.7148 6.3359-11.34 6.3398h-1.1836c-1.207 0-2.3594 0.48438-3.2109 1.3398-13.797 13.961-23.469 31.465-27.945 50.578-1.1289 4.7773-0.66016 9.793 1.3398 14.277 5.0039 11.18 12.895 20.828 22.863 27.949 1.3008 0.93359 2.9961 1.1133 4.4609 0.47266 1.4648-0.64062 2.4844-2.0078 2.6836-3.5977 2.1133-16.621 2.4727-33.418 1.0664-50.113-0.09375-2.3516 1.6797-4.3594 4.0234-4.5586 2.3477-0.19922 4.4336 1.4805 4.7422 3.8125 0.83594 9.9023 1.0703 19.848 0.71094 29.777 2.1523 4.4648 5.2109 8.4375 8.9766 11.66 1.4336-5.5039 2.9492-10.988 4.5508-16.449 0.75781-2.2305 3.1406-3.4688 5.3984-2.8047 2.2617 0.66406 3.5938 2.9961 3.0234 5.2812-3.2109 10.965-6.0703 22.031-8.5742 33.18-0.03125 0.29688-0.03125 0.60156 0 0.89844-0.16016 6.9922 2.4023 13.773 7.1445 18.914 4.7461 5.1406 11.301 8.2383 18.285 8.6367 6.9805 0.39844 13.848-1.9297 19.148-6.4961v-7.4023l-13.328-10.25c-3.7578-2.8828-6.1289-7.2148-6.543-11.93-0.41016-4.7188 1.1797-9.3945 4.3789-12.883 3.2031-3.4922 7.7227-5.4766 12.457-5.4766h14.879c4.7344 0.003906 9.25 1.9961 12.445 5.4883 3.1953 3.4883 4.7773 8.1641 4.3672 12.879-0.41406 4.7148-2.7852 9.0391-6.5391 11.922l-13.328 10.25-0.23828 7.4023c5.2969 4.582 12.172 6.9219 19.164 6.5273s13.559-3.4922 18.309-8.6406c4.7461-5.1445 7.3086-11.938 7.1406-18.941 0.03125-0.29688 0.03125-0.60156 0-0.89844-2.5156-11.148-5.3867-22.215-8.6133-33.18-0.68359-2.332 0.65625-4.7773 2.9883-5.4609s4.7773 0.65234 5.4609 2.9844c1.6055 5.4609 3.125 10.945 4.5586 16.449 3.7695-3.2227 6.8242-7.1953 8.9805-11.66-0.36328-9.9297-0.125-19.875 0.71094-29.777 0.30859-2.332 2.3945-4.0117 4.7383-3.8125 2.3477 0.19922 4.1211 2.207 4.0273 4.5586-1.4062 16.695-1.0469 33.492 1.0664 50.113 0.19531 1.5938 1.2148 2.9648 2.6875 3.6055 1.4688 0.64063 3.168 0.46094 4.4688-0.48047 9.9609-7.125 17.848-16.77 22.852-27.949 2.0195-4.4766 2.5117-9.4922 1.3984-14.277-4.4805-19.113-14.156-36.617-27.957-50.578-0.85156-0.85547-2.0039-1.3398-3.2109-1.3398h-1.1836c-4.6172-0.011718-8.8984-2.4102-11.316-6.3398-12.691-20.598-34.992-33.32-59.184-33.758zm-37.234 53.656c2.0234-0.023437 3.9688 0.76953 5.3945 2.2031 1.4258 1.4336 2.2109 3.3867 2.1758 5.4062 0 4.1367-3.3516 7.4883-7.4844 7.4883-4.1367 0-7.4883-3.3516-7.4883-7.4883-0.035157-1.9922 0.72656-3.918 2.1172-5.3438 1.3906-1.4297 3.293-2.2461 5.2852-2.2656zm71.41 0c2.0195-0.023437 3.9648 0.77344 5.3867 2.207 1.4219 1.4336 2.207 3.3828 2.1719 5.4023 0.046876 2.0156-0.72266 3.9609-2.1289 5.4023-1.4102 1.4375-3.3359 2.25-5.3516 2.25s-3.9414-0.8125-5.3516-2.25c-1.4062-1.4414-2.1758-3.3867-2.1289-5.4023-0.035156-1.9922 0.72656-3.918 2.1172-5.3438 1.3906-1.4297 3.293-2.2461 5.2852-2.2656z"/>
  <path d="m188.03 328.28c-15.422-0.007812-30.219 6.1172-41.125 17.023-10.91 10.902-17.039 25.695-17.039 41.121v89.566-0.003907c0.011719 6.207 5.0469 11.23 11.254 11.223h224.61c-4.5664-5.4727-8.3555-11.543-11.266-18.047-2.8125-6.2344-3.4922-13.219-1.9453-19.875 4.8594-20.691 15.34-39.637 30.293-54.742 2.5039-2.5391 5.9219-3.9609 9.4883-3.957h1.1836c1.5703-0.003906 3.0273-0.81641 3.8516-2.1523 11.57-18.773 30.395-31.922 52.004-36.324-10.953-14.973-28.395-23.816-46.945-23.809h-57.68l-41.652 71.238c-1.6289 2.7969-4.6172 4.5195-7.8555 4.5195-3.2344 0-6.2266-1.7227-7.8555-4.5195l-41.594-71.238zm9.4883 53.379h8.7656v24.852h24.855v8.7695h-24.855v24.852h-8.7656v-24.852h-24.816v-8.7695h24.816z"/>
  <path d="m452.86 497.53 12.375 9.5156 12.379-9.5156c2.75-2.1133 3.8516-5.7461 2.7344-9.0312-1.1172-3.2852-4.2031-5.4961-7.6719-5.4961h-14.879c-3.4688 0-6.5547 2.2109-7.6719 5.4961s-0.019531 6.918 2.7344 9.0312z"/>
  <path d="m465.23 529.92c2.8281 2.2109 5.9727 3.9844 9.332 5.2617-6.0703 1.9805-12.617 1.9805-18.688 0 3.3672-1.2734 6.5195-3.0469 9.3555-5.2617z"/>
  <path d="m255.31 306.75h79.742c4.6406 0 9.0898-1.8438 12.367-5.125 3.2812-3.2812 5.125-7.7305 5.125-12.371v-34.484c0-4.6406-1.8438-9.0898-5.125-12.371-3.2773-3.2812-7.7266-5.125-12.367-5.125h-79.742c-4.6406 0-9.0898 1.8438-12.371 5.125s-5.1211 7.7305-5.1211 12.371v34.484c0 4.6406 1.8398 9.0898 5.1211 12.371s7.7305 5.125 12.371 5.125z"/>
  <path d="m207.65 224.57c-0.027344-1.2539-0.027344-2.5078 0-3.7617v-51.199c-8.7969 1.3945-16.398 6.9141-20.441 14.848-4.043 7.9375-4.043 17.328 0 25.266 4.043 7.9336 11.645 13.453 20.441 14.848z"/>
  <path d="m382.79 220.8c0.027343 1.2539 0.027343 2.5078 0 3.7617 8.7969-1.3945 16.395-6.9141 20.438-14.848 4.043-7.9375 4.043-17.328 0-25.262-4.043-7.9375-11.641-13.457-20.438-14.852z"/>
  <path d="m317.93 117.98c3.3984-2.4336 7.6406-3.375 11.75-2.6055 4.1094 0.76953 7.7266 3.1797 10.016 6.6758 10.254 15.66 23.91 28.801 39.953 38.445 2.9219 0.10156 5.8203 0.55078 8.6328 1.3398v-45.707c-0.11328-33.188-17.883-63.809-46.645-80.371s-64.164-16.562-92.926 0c-28.758 16.562-46.531 47.184-46.645 80.371v45.707c3.125-0.87891 6.3477-1.3359 9.5938-1.3633 38.336-5.3711 74.797-19.949 106.27-42.492z"/>
  <path d="m344.12 230.09c5.0508 1.8516 9.4141 5.2148 12.496 9.625 3.082 4.4141 4.7344 9.668 4.7305 15.051v8.8984c8.2734-12.766 12.672-27.648 12.672-42.859v-34.582z"/>
  <path d="m229.04 263.66c-8.2695-12.766-12.672-27.648-12.672-42.859v-34.582l29.906 43.863v0.003906c-5.0547 1.8516-9.418 5.2109-12.5 9.625-3.082 4.4141-4.7344 9.668-4.7344 15.051z"/>
  <path d="m323.05 125.12c-31.656 22.676-68.199 37.59-106.68 43.539v1.9648l39.434 57.855h78.754l39.465-57.855v-3.2812h-0.003906c-16.703-10.262-30.93-24.086-41.672-40.488-0.97656-1.4922-2.5234-2.5234-4.2773-2.8516s-3.5703 0.074219-5.0195 1.1133z"/>
 </g>
</svg>
